<?xml version="1.0" encoding="UTF-8"?>
<svg width="99px" height="41px" viewBox="0 0 99 41" version="1.1" xmlns="http://www.w3.org/2000/svg" xmlns:xlink="http://www.w3.org/1999/xlink">
    <title>Stripe-logo</title>
    <g id="Contractors" stroke="none" stroke-width="1" fill="none" fill-rule="evenodd">
        <g id="Contractors/onboarding/paymentSetup" transform="translate(-137.000000, -418.000000)" fill="#6772E5">
            <g id="Stripe-logo" transform="translate(137.000000, 418.000000)">
                <path d="M98.939538,21.2275604 C98.939538,14.2765671 95.538984,8.79179893 89.039538,8.79179893 C82.5126683,8.79179893 78.5636378,14.2765671 78.5636378,21.1732558 C78.5636378,29.3461035 83.2256877,33.4732557 89.9171004,33.4732557 C93.1805352,33.4732557 95.6486793,32.7401432 97.5134992,31.7083551 L97.5134992,26.2778915 C95.6486793,27.2010703 93.5096211,27.771269 90.7946627,27.771269 C88.1345519,27.771269 85.7761032,26.8480902 85.4744411,23.6441167 L98.8846903,23.6441167 C98.8846903,23.2911366 98.939538,21.8792161 98.939538,21.2275604 L98.939538,21.2275604 Z M85.3921696,18.6480903 C85.3921696,15.5798784 87.2844134,14.3037194 89.0121142,14.3037194 C90.6849674,14.3037194 92.4675159,15.5798784 92.4675159,18.6480903 L85.3921696,18.6480903 Z" id="path5516"></path>
                <path d="M67.9780423,8.79179893 C65.2905077,8.79179893 63.5628069,10.0408055 62.6029731,10.9096797 L62.2464634,9.22623601 L56.2132224,9.22623601 L56.2132224,40.8858385 L63.0691781,39.4467656 L63.0966019,31.7626597 C64.0838595,32.46862 65.5373221,33.4732557 67.9506185,33.4732557 C72.8594827,33.4732557 77.3295658,29.563322 77.3295658,20.9560373 C77.302142,13.0818651 72.7772113,8.79179893 67.9780423,8.79179893 L67.9780423,8.79179893 Z M66.332613,27.4997458 C64.7146074,27.4997458 63.7547736,26.9295472 63.0966019,26.2235869 L63.0691781,16.150077 C63.7821975,15.3626598 64.7694551,14.8196135 66.332613,14.8196135 C68.8281808,14.8196135 70.5558816,17.5891499 70.5558816,21.1461035 C70.5558816,24.7845141 68.8556046,27.4997458 66.332613,27.4997458 L66.332613,27.4997458 Z" id="path5518"></path>
                <polygon id="polygon5520" points="53.6628069 5.72358703 53.6628069 0.211666528 46.7794275 1.65073937 46.7794275 7.18981218"></polygon>
                <rect id="rect5522" x="46.7794275" y="9.25338915" width="6.88337946" height="23.758278"></rect>
                <path d="M39.4024192,11.2626598 L38.963638,9.25338833 L33.0400924,9.25338833 L33.0400924,33.0116663 L39.896048,33.0116663 L39.896048,16.9103419 C41.5140535,14.8196135 44.2564358,15.1997459 45.1065743,15.4984214 L45.1065743,9.25338833 C44.229012,8.92756052 41.0204247,8.33020953 39.4024192,11.2626598 Z" id="path5524"></path>
                <path d="M25.6905079,3.36133538 L18.9990952,4.77325591 L18.9716714,26.5222624 C18.9716714,30.5408054 22.0157157,33.5004081 26.0744414,33.5004081 C28.3231949,33.5004081 29.9686242,33.0931233 30.8736104,32.6043816 L30.8736104,27.0924611 C29.9960481,27.4454412 25.6630841,28.6944478 25.6630841,24.6759048 L25.6630841,15.036832 L30.8736104,15.036832 L30.8736104,9.25338833 L25.6630841,9.25338833 L25.6905079,3.36133538 Z" id="path5526"></path>
                <path d="M7.15200388,16.150077 C7.15200388,15.0911366 8.0295662,14.6838519 9.48302879,14.6838519 C11.5672393,14.6838519 14.1999263,15.3083552 16.2841368,16.4216002 L16.2841368,10.0408055 C14.0079595,9.14477906 11.7592061,8.79179893 9.48302879,8.79179893 C3.91599281,8.79179893 0.213776769,11.6699446 0.213776769,16.4759048 C0.213776769,23.9699445 10.6348293,22.7752426 10.6348293,26.0063684 C10.6348293,27.255375 9.53787644,27.6626598 8.00214238,27.6626598 C5.7259651,27.6626598 2.81903991,26.7394809 0.515438818,25.4904743 L0.515438818,31.952726 C3.06585432,33.0388187 5.64369364,33.5004081 8.00214238,33.5004081 C13.7062975,33.5004081 17.6279041,30.7037193 17.6279041,25.8434545 C17.6004803,17.7520638 7.15200388,19.1911366 7.15200388,16.150077 Z" id="path5528"></path>
            </g>
        </g>
    </g>
</svg>